<svg width="22" height="26" viewBox="0 0 22 26" fill="none" xmlns="http://www.w3.org/2000/svg">
<path d="M6.48612 14.5347C6.06483 14.5347 5.70372 14.3843 5.40279 14.0833C5.10187 13.7824 4.9514 13.4213 4.9514 13C4.9514 12.5787 5.10187 12.2176 5.40279 11.9167C5.70372 11.6157 6.06483 11.4653 6.48612 11.4653C6.90742 11.4653 7.26853 11.6157 7.56946 11.9167C7.87038 12.2176 8.02085 12.5787 8.02085 13C8.02085 13.4213 7.87038 13.7824 7.56946 14.0833C7.26853 14.3843 6.90742 14.5347 6.48612 14.5347ZM6.48612 18.4167C4.9815 18.4167 3.70256 17.89 2.64932 16.8368C1.59608 15.7836 1.06946 14.5046 1.06946 13C1.06946 11.4954 1.59608 10.2164 2.64932 9.16319C3.70256 8.10995 4.9815 7.58333 6.48612 7.58333C7.56946 7.58333 8.51737 7.83912 9.32987 8.35069C10.1424 8.86227 10.7818 9.63715 11.2483 10.6753H19.0122C19.1024 10.6753 19.1852 10.6904 19.2604 10.7205C19.3357 10.7506 19.4109 10.8032 19.4861 10.8785L21.3368 12.7292C21.4121 12.8044 21.4647 12.8834 21.4948 12.9661C21.5249 13.0489 21.5399 13.1354 21.5399 13.2257C21.5399 13.316 21.5211 13.3987 21.4835 13.474C21.4459 13.5492 21.3895 13.6244 21.3142 13.6997L18.4931 16.2951C18.4329 16.3553 18.3652 16.4005 18.2899 16.4306C18.2147 16.4606 18.1395 16.4757 18.0642 16.4757C17.989 16.4757 17.9175 16.4682 17.8498 16.4531C17.7821 16.4381 17.7107 16.408 17.6354 16.3628L16.0781 15.2344L14.4983 16.3854C14.4381 16.4306 14.3741 16.4606 14.3064 16.4757C14.2387 16.4907 14.1673 16.4983 14.092 16.4983C14.0168 16.4983 13.9453 16.487 13.8776 16.4644C13.8099 16.4418 13.746 16.408 13.6858 16.3628L12.3993 15.3247H11.2483C10.8721 16.2274 10.2816 16.9685 9.47658 17.5477C8.6716 18.127 7.67478 18.4167 6.48612 18.4167ZM6.48612 17.0625C7.35881 17.0625 8.16379 16.7729 8.90105 16.1936C9.63832 15.6143 10.1123 14.8733 10.3229 13.9705H12.8958L14.1146 14.9861C14.0996 14.9861 14.0996 14.9861 14.1146 14.9861C14.1296 14.9861 14.1296 14.9861 14.1146 14.9861C14.1146 14.9861 14.1184 14.9861 14.1259 14.9861C14.1334 14.9861 14.1296 14.9861 14.1146 14.9861L16.1007 13.5642L17.9514 14.9635C17.9514 14.9635 17.9476 14.9635 17.9401 14.9635C17.9326 14.9635 17.9364 14.9635 17.9514 14.9635L19.8698 13.1806C19.8698 13.1806 19.8736 13.1843 19.8811 13.1918C19.8886 13.1994 19.8849 13.1956 19.8698 13.1806C19.8849 13.1806 19.8886 13.1806 19.8811 13.1806C19.8736 13.1806 19.8698 13.1806 19.8698 13.1806L18.7188 12.0295H10.3229C10.1424 11.1869 9.69099 10.4609 8.96876 9.85156C8.24654 9.24219 7.41899 8.9375 6.48612 8.9375C5.35765 8.9375 4.39845 9.33246 3.60852 10.1224C2.81859 10.9123 2.42362 11.8715 2.42362 13C2.42362 14.1285 2.81859 15.0877 3.60852 15.8776C4.39845 16.6675 5.35765 17.0625 6.48612 17.0625Z" fill="white"/>
</svg>
