<svg width="22" height="26" viewBox="0 0 22 26" fill="none" xmlns="http://www.w3.org/2000/svg">
<path d="M11 12.9774C10.0069 12.9774 9.19444 12.6615 8.56249 12.0295C7.93055 11.3976 7.61458 10.5851 7.61458 9.59201C7.61458 8.59896 7.93055 7.78646 8.56249 7.15451C9.19444 6.52257 10.0069 6.2066 11 6.2066C11.993 6.2066 12.8055 6.52257 13.4375 7.15451C14.0694 7.78646 14.3854 8.59896 14.3854 9.59201C14.3854 10.5851 14.0694 11.3976 13.4375 12.0295C12.8055 12.6615 11.993 12.9774 11 12.9774ZM3.77777 18.8681V18.1007C3.77777 17.5289 3.92071 17.0399 4.20659 16.6337C4.49247 16.2274 4.8611 15.919 5.31249 15.7083C6.3206 15.2569 7.28732 14.9184 8.21267 14.6927C9.13801 14.467 10.0671 14.3542 11 14.3542C11.9329 14.3542 12.8582 14.4708 13.776 14.704C14.6939 14.9372 15.6568 15.272 16.6649 15.7083C17.1314 15.919 17.5075 16.2274 17.7934 16.6337C18.0793 17.0399 18.2222 17.5289 18.2222 18.1007V18.8681C18.2222 19.2442 18.0906 19.5639 17.8272 19.8273C17.5639 20.0906 17.2442 20.2222 16.868 20.2222H5.13194C4.75578 20.2222 4.43605 20.0906 4.17274 19.8273C3.90943 19.5639 3.77777 19.2442 3.77777 18.8681ZM5.13194 18.8681H16.868V18.1007C16.868 17.86 16.7966 17.6305 16.6536 17.4123C16.5107 17.1942 16.3339 17.0324 16.1233 16.9271C15.1603 16.4606 14.2801 16.1409 13.4826 15.9679C12.6852 15.7948 11.8576 15.7083 11 15.7083C10.1424 15.7083 9.30728 15.7948 8.49478 15.9679C7.68228 16.1409 6.80208 16.4606 5.85416 16.9271C5.64351 17.0324 5.47048 17.1942 5.33506 17.4123C5.19965 17.6305 5.13194 17.86 5.13194 18.1007V18.8681ZM11 11.6233C11.5868 11.6233 12.072 11.4314 12.4557 11.0477C12.8394 10.6641 13.0312 10.1788 13.0312 9.59201C13.0312 9.00521 12.8394 8.51996 12.4557 8.13628C12.072 7.7526 11.5868 7.56076 11 7.56076C10.4132 7.56076 9.92794 7.7526 9.54426 8.13628C9.16058 8.51996 8.96874 9.00521 8.96874 9.59201C8.96874 10.1788 9.16058 10.6641 9.54426 11.0477C9.92794 11.4314 10.4132 11.6233 11 11.6233Z" fill="white"/>
</svg>
