<svg width="22" height="26" viewBox="0 0 22 26" fill="none" xmlns="http://www.w3.org/2000/svg">
<path d="M6.48612 18.4167C4.9815 18.4167 3.70256 17.89 2.64932 16.8368C1.59608 15.7836 1.06946 14.5046 1.06946 13C1.06946 11.4954 1.59608 10.2164 2.64932 9.16319C3.70256 8.10995 4.9815 7.58333 6.48612 7.58333H15.5139C17.0185 7.58333 18.2975 8.10995 19.3507 9.16319C20.4039 10.2164 20.9306 11.4954 20.9306 13C20.9306 14.5046 20.4039 15.7836 19.3507 16.8368C18.2975 17.89 17.0185 18.4167 15.5139 18.4167H6.48612ZM6.48612 17.0625H15.5139C16.6424 17.0625 17.6016 16.6675 18.3915 15.8776C19.1814 15.0877 19.5764 14.1285 19.5764 13C19.5764 11.8715 19.1814 10.9123 18.3915 10.1224C17.6016 9.33246 16.6424 8.9375 15.5139 8.9375H6.48612C5.35765 8.9375 4.39845 9.33246 3.60852 10.1224C2.81859 10.9123 2.42362 11.8715 2.42362 13C2.42362 14.1285 2.81859 15.0877 3.60852 15.8776C4.39845 16.6675 5.35765 17.0625 6.48612 17.0625ZM15.5365 15.2795C16.1684 15.2795 16.7063 15.0576 17.1502 14.6137C17.5941 14.1698 17.816 13.6319 17.816 13C17.816 12.3681 17.5941 11.8301 17.1502 11.3863C16.7063 10.9424 16.1684 10.7205 15.5365 10.7205C14.9045 10.7205 14.3666 10.9424 13.9228 11.3863C13.4789 11.8301 13.257 12.3681 13.257 13C13.257 13.6319 13.4789 14.1698 13.9228 14.6137C14.3666 15.0576 14.9045 15.2795 15.5365 15.2795Z" fill="white"/>
</svg>
