<svg width="22" height="26" viewBox="0 0 22 26" fill="none" xmlns="http://www.w3.org/2000/svg">
<path d="M5.80903 21.125C4.99653 21.125 4.3044 20.8391 3.73264 20.2674C3.16088 19.6956 2.875 19.0035 2.875 18.191C2.875 17.3785 3.16088 16.6863 3.73264 16.1146C4.3044 15.5428 4.99653 15.2569 5.80903 15.2569H7.38889V10.7431H5.80903C4.99653 10.7431 4.3044 10.4572 3.73264 9.88542C3.16088 9.31366 2.875 8.62153 2.875 7.80903C2.875 6.99653 3.16088 6.3044 3.73264 5.73264C4.3044 5.16088 4.99653 4.875 5.80903 4.875C6.62153 4.875 7.31366 5.16088 7.88542 5.73264C8.45718 6.3044 8.74306 6.99653 8.74306 7.80903V9.38889H13.2569V7.80903C13.2569 6.99653 13.5428 6.3044 14.1146 5.73264C14.6863 5.16088 15.3785 4.875 16.191 4.875C17.0035 4.875 17.6956 5.16088 18.2674 5.73264C18.8391 6.3044 19.125 6.99653 19.125 7.80903C19.125 8.62153 18.8391 9.31366 18.2674 9.88542C17.6956 10.4572 17.0035 10.7431 16.191 10.7431H14.6111V15.2569H16.191C17.0035 15.2569 17.6956 15.5428 18.2674 16.1146C18.8391 16.6863 19.125 17.3785 19.125 18.191C19.125 19.0035 18.8391 19.6956 18.2674 20.2674C17.6956 20.8391 17.0035 21.125 16.191 21.125C15.3785 21.125 14.6863 20.8391 14.1146 20.2674C13.5428 19.6956 13.2569 19.0035 13.2569 18.191V16.6111H8.74306V18.191C8.74306 19.0035 8.45718 19.6956 7.88542 20.2674C7.31366 20.8391 6.62153 21.125 5.80903 21.125ZM5.80903 19.7708C6.24537 19.7708 6.61777 19.6166 6.92622 19.3082C7.23466 18.9997 7.38889 18.6273 7.38889 18.191V16.6111H5.80903C5.37269 16.6111 5.00029 16.7653 4.69184 17.0738C4.38339 17.3822 4.22917 17.7546 4.22917 18.191C4.22917 18.6273 4.38339 18.9997 4.69184 19.3082C5.00029 19.6166 5.37269 19.7708 5.80903 19.7708ZM16.191 19.7708C16.6273 19.7708 16.9997 19.6166 17.3082 19.3082C17.6166 18.9997 17.7708 18.6273 17.7708 18.191C17.7708 17.7546 17.6166 17.3822 17.3082 17.0738C16.9997 16.7653 16.6273 16.6111 16.191 16.6111H14.6111V18.191C14.6111 18.6273 14.7653 18.9997 15.0738 19.3082C15.3822 19.6166 15.7546 19.7708 16.191 19.7708ZM8.74306 15.2569H13.2569V10.7431H8.74306V15.2569ZM5.80903 9.38889H7.38889V7.80903C7.38889 7.37269 7.23466 7.00029 6.92622 6.69184C6.61777 6.38339 6.24537 6.22917 5.80903 6.22917C5.37269 6.22917 5.00029 6.38339 4.69184 6.69184C4.38339 7.00029 4.22917 7.37269 4.22917 7.80903C4.22917 8.24537 4.38339 8.61777 4.69184 8.92622C5.00029 9.23466 5.37269 9.38889 5.80903 9.38889ZM14.6111 9.38889H16.191C16.6273 9.38889 16.9997 9.23466 17.3082 8.92622C17.6166 8.61777 17.7708 8.24537 17.7708 7.80903C17.7708 7.37269 17.6166 7.00029 17.3082 6.69184C16.9997 6.38339 16.6273 6.22917 16.191 6.22917C15.7546 6.22917 15.3822 6.38339 15.0738 6.69184C14.7653 7.00029 14.6111 7.37269 14.6111 7.80903V9.38889Z" fill="white"/>
</svg>
